<?xml version="1.0" standalone="no"?>
<!DOCTYPE svg PUBLIC "-//W3C//DTD SVG 20010904//EN"
 "http://www.w3.org/TR/2001/REC-SVG-20010904/DTD/svg10.dtd">
<svg version="1.0" xmlns="http://www.w3.org/2000/svg"
 width="512.000000pt" height="512.000000pt" viewBox="0 0 512.000000 512.000000"
 preserveAspectRatio="xMidYMid meet">
<metadata>
Created by potrace 1.14, written by Peter Selinger 2001-2017
</metadata>
<g transform="translate(0.000000,512.000000) scale(0.100000,-0.100000)"
fill="#000000" stroke="none">
<path d="M245 4500 l-80 -5 0 -210 c1 -187 6 -296 20 -375 2 -14 7 -43 10 -65
30 -208 124 -495 197 -598 l19 -27 -69 -93 c-150 -200 -229 -346 -302 -557
-19 -55 -33 -114 -32 -140 1 -88 118 -371 218 -528 152 -236 377 -478 608
-650 39 -29 78 -59 86 -65 17 -14 99 -68 180 -119 285 -182 664 -332 1025
-407 49 -10 72 -14 165 -26 193 -25 424 -21 620 11 159 25 492 117 595 163 11
5 74 33 140 62 66 29 142 66 168 81 26 15 50 28 54 28 10 0 198 114 201 122 2
4 8 8 14 8 10 0 228 155 263 187 11 10 47 41 79 68 240 202 466 492 585 749
48 104 104 277 104 321 0 53 -52 203 -118 342 -56 118 -152 271 -235 374 -28
35 -49 65 -48 68 74 150 101 210 121 271 34 102 64 215 73 270 3 14 6 36 9 50
3 14 7 48 11 75 3 28 8 57 9 67 15 79 24 523 10 536 -7 7 -252 7 -310 -1 -334
-44 -642 -194 -895 -436 -70 -67 -72 -69 -98 -55 -95 50 -373 147 -512 178
-41 9 -91 21 -110 26 -19 5 -71 14 -115 20 -44 6 -91 14 -105 16 -46 9 -364
12 -435 4 -38 -5 -92 -11 -120 -15 -178 -21 -504 -114 -706 -200 -44 -19 -84
-35 -89 -35 -4 0 -39 30 -76 66 -265 257 -603 413 -949 440 -50 3 -92 7 -95 8
-3 0 -41 -1 -85 -4z"/>
</g>
</svg>
